<svg width="24" height="25" viewBox="0 0 24 25" fill="none" xmlns="http://www.w3.org/2000/svg">
<path d="M12 24.8503C10.3333 24.8503 8.77222 24.5336 7.31667 23.9003C5.86111 23.2669 4.59444 22.4114 3.51667 21.3336C2.43889 20.2558 1.58333 18.9892 0.95 17.5336C0.316667 16.0781 0 14.5169 0 12.8503C0 11.1836 0.316667 9.6225 0.95 8.16695C1.58333 6.71139 2.43889 5.44473 3.51667 4.36695C4.59444 3.28917 5.86111 2.43361 7.31667 1.80028C8.77222 1.16695 10.3333 0.850281 12 0.850281C13.8222 0.850281 15.55 1.23917 17.1833 2.01695C18.8167 2.79473 20.2 3.89473 21.3333 5.31695V2.18361H24V10.1836H16V7.51695H19.6667C18.7556 6.2725 17.6333 5.29473 16.3 4.58361C14.9667 3.8725 13.5333 3.51695 12 3.51695C9.4 3.51695 7.19444 4.4225 5.38333 6.23361C3.57222 8.04473 2.66667 10.2503 2.66667 12.8503C2.66667 15.4503 3.57222 17.6558 5.38333 19.4669C7.19444 21.2781 9.4 22.1836 12 22.1836C14.3333 22.1836 16.3722 21.4281 18.1167 19.9169C19.8611 18.4058 20.8889 16.4947 21.2 14.1836H23.9333C23.6 17.2281 22.2944 19.7669 20.0167 21.8003C17.7389 23.8336 15.0667 24.8503 12 24.8503ZM15.7333 18.4503L10.6667 13.3836V6.18361H13.3333V12.3169L17.6 16.5836L15.7333 18.4503Z" fill="#2B2C34"/>
</svg>
